<svg
   xmlns:dc="http://purl.org/dc/elements/1.1/"
   xmlns:cc="http://creativecommons.org/ns#"
   xmlns:rdf="http://www.w3.org/1999/02/22-rdf-syntax-ns#"
   xmlns:svg="http://www.w3.org/2000/svg"
   xmlns="http://www.w3.org/2000/svg"
   id="svg42"
   version="1.1"
   viewBox="0 0 380 280">
  <metadata
     id="metadata48">
    <rdf:RDF>
      <cc:Work
         rdf:about="">
        <dc:format>image/svg+xml</dc:format>
        <dc:type
           rdf:resource="http://purl.org/dc/dcmitype/StillImage" />
      </cc:Work>
    </rdf:RDF>
  </metadata>
  <defs
     id="defs46" />
  <svg
     height="100%"
     width="100%"
     id="svg9"
     version="1.1"
     viewBox="0 0 380 280">
    <linearGradient
       y2="0"
       x2="0"
       y1="1"
       x1="1"
       id="icon_color_gradient">
      <stop
         id="stop2"
         stop-opacity="1"
         stop-color="#7fff94"
         offset="0%" />
      <stop
         id="stop4"
         stop-opacity="1"
         stop-color="#02e0f3"
         offset="40%" />
      <stop
         id="stop6"
         stop-opacity="1"
         stop-color="#2caabd"
         offset="100%" />
    </linearGradient>
  </svg>
  <svg
     id="svg17"
     version="1.1"
     height="55.608215"
     width="64"
     y="104.19589"
     x="28.4375">
    <g
       style="fill:url(#icon_color_gradient)"
       id="g15">
      <svg
         height="100%"
         width="100%"
         id="svg13"
         version="1.1"
         viewBox="0 0 1899 1650">
        <path
           style="fill-rule:evenodd"
           id="path11"
           d="m 551.594,22.75 c -0.335,3.712 -1.059,21.6 -1.608,39.75 -3.167,104.513 -6.631,115.28 -60.537,188.157 -22.775,30.791 -39.771,56.028 -39.18,58.179 0.545,1.979 8.667,23.012 80.159,207.575 30.021,77.501 54.468,140.994 54.327,141.096 -0.21,0.152 -143.673,22.477 -336.492,52.363 -20.481,3.174 -37.491,6.025 -37.801,6.335 -0.31,0.31 -5.437,10.853 -11.393,23.429 -11.626,24.547 -23.642,53.727 -32.066,77.866 -6.394,18.324 -9.175,23.951 -16.912,34.219 -11.01,14.611 -28.218,28.994 -59.591,49.808 -11,7.298 -27.2,17.64 -36,22.983 -8.8,5.344 -21.289,13.117 -27.753,17.274 -11.099,7.138 -11.679,7.674 -10.433,9.637 0.725,1.144 4.371,7.367 8.102,13.829 4.747,8.222 7.331,11.75 8.606,11.75 1.003,0 40.896,-6.266 88.651,-13.925 47.755,-7.658 139.252,-22.31 203.327,-32.559 64.075,-10.249 117.196,-18.835 118.047,-19.078 0.851,-0.244 37.526,-46.551 81.5,-102.904 l 79.953,-102.461 4.002,-0.036 4.002,-0.037 3.85,-9.879 c 3.327,-8.539 5.417,-11.892 15.403,-24.713 l 11.552,-14.834 -2.081,-3.537 c -1.437,-2.444 -2.712,-3.465 -4.123,-3.304 -1.73,0.197 -1.91,-0.109 -1.178,-2 3.415,-8.827 96.422,-238.517 97.007,-239.57 0.428,-0.77 -1.555,-7.336 -4.682,-15.5 C 720.833,373.298 603.975,67.046 593.206,38.75 L 584.548,16 h -16.172 -16.173 z m 125.695,-5.5 c 0.277,0.688 10.154,24.875 21.949,53.75 11.796,28.875 33.515,82.2 48.265,118.5 14.75,36.3 27.084,66.307 27.408,66.682 0.428,0.496 93.266,-226.125 97.676,-238.432 C 873.181,16.091 868.109,16 775,16 c -78.173,0 -98.111,0.255 -97.711,1.25 m 345.022,-0.5 c 0.236,0.413 22.38,54.645 49.209,120.517 26.829,65.872 48.897,119.647 49.04,119.5 0.143,-0.147 21.492,-52.467 47.442,-116.267 25.95,-63.8 48.015,-117.912 49.034,-120.25 l 1.852,-4.25 h -98.503 c -54.177,0 -98.31,0.337 -98.074,0.75 m 288.174,0.5 c -0.249,0.688 -33.737,88.501 -74.417,195.142 l -73.963,193.892 48.886,121.04 48.886,121.04 -2.034,2.857 c -2.316,3.252 -2.806,2.153 6.241,13.979 4.354,5.692 7.083,10.99 12.388,24.05 l 6.803,16.75 h 4.002 c 2.489,0 4.438,-0.596 5.155,-1.575 0.964,-1.319 7.81,6.939 42.065,50.75 41.272,52.783 119.657,153.104 120.002,153.585 0.257,0.357 12.299,2.312 155.001,25.173 68.75,11.013 154.25,24.771 190,30.573 35.75,5.802 65.835,10.424 66.855,10.272 1.203,-0.18 4.615,-5.023 9.707,-13.778 7.844,-13.486 7.85,-13.502 5.723,-15.134 -1.171,-0.899 -14.005,-8.999 -28.52,-18 -57.586,-35.71 -77.121,-49.595 -92.46,-65.715 -17.81,-18.718 -25.377,-31.891 -47.473,-82.651 -17.373,-39.908 -30.357,-66.475 -32.755,-67.023 -1.912,-0.437 -101.625,-15.947 -291.812,-45.39 -41.655,-6.448 -76.016,-12.005 -76.359,-12.347 -0.342,-0.343 30.051,-79.833 67.54,-176.645 60.429,-156.05 68.028,-176.282 66.969,-178.309 -1.646,-3.153 -16.633,-24.985 -26.281,-38.286 -11.055,-15.24 -28.396,-36.909 -40.013,-50 -14.981,-16.882 -21.012,-28.377 -26.1,-49.75 -4.852,-20.382 -7.004,-43.004 -8.489,-89.25 -0.565,-17.6 -1.299,-37.513 -1.631,-44.25 L 1343.799,16 h -16.431 c -12.237,0 -16.546,0.319 -16.883,1.25 M 943.613,91.096 c -0.778,1.872 -28.28,71.529 -61.117,154.793 l -59.703,151.388 10.008,26.112 c 5.504,14.361 32.836,85.736 60.737,158.611 27.902,72.875 51.023,132.831 51.381,133.235 0.635,0.717 128.457,-311.755 128.338,-313.735 -0.07,-1.167 -127.085,-312.662 -127.77,-313.347 -0.253,-0.253 -1.097,1.072 -1.874,2.943 m 139.988,850.654 c 1.561,2.063 44.221,57.075 94.8,122.25 50.58,65.175 95.975,123.675 100.88,130 7.013,9.043 9.591,11.658 12.068,12.24 1.733,0.408 46.126,6.61 98.651,13.784 52.525,7.173 126.7,17.341 164.832,22.594 38.133,5.253 69.502,9.382 69.708,9.175 0.332,-0.332 -202.841,-256.461 -205.847,-259.499 -1.094,-1.106 -82.736,-14.431 -265.51,-43.333 -38.125,-6.028 -70.016,-10.961 -70.869,-10.961 -1.173,0 -0.859,0.914 1.287,3.75 M 797,947.15 c -11.275,1.602 -85.917,11.907 -165.871,22.898 -79.955,10.991 -145.767,20.228 -146.249,20.526 -0.482,0.298 -21.921,27.628 -47.643,60.734 -117.37,151.066 -159.758,205.784 -160.027,206.575 -0.159,0.47 0.741,0.68 2,0.466 2.138,-0.364 100.544,-15.047 257.221,-38.381 36.813,-5.482 67.485,-9.968 68.161,-9.968 0.676,0 26.807,-31.547 58.069,-70.104 31.261,-38.557 79.387,-97.895 106.945,-131.862 27.558,-33.967 50.422,-62.271 50.809,-62.896 0.9,-1.456 1.103,-1.474 -23.415,2.012 m 767,73.41 c 0,0.886 157.901,203.871 158.852,204.208 0.416,0.148 7.196,-10.877 15.065,-24.5 67.479,-116.807 83.293,-144.387 82.963,-144.69 -0.455,-0.417 -36.705,-5.459 -158.88,-22.1 -50.325,-6.855 -92.963,-12.712 -94.75,-13.016 -1.787,-0.304 -3.25,-0.26 -3.25,0.098 m -1269.5,7.005 c -20.9,2.942 -78.05,10.821 -127,17.509 -48.95,6.687 -89.147,12.291 -89.326,12.452 -0.346,0.311 96.502,168.528 97.65,169.611 0.372,0.35 8.35,-9.325 17.729,-21.5 18.285,-23.737 129.481,-166.997 137.685,-177.387 3.801,-4.815 4.513,-6.225 3.098,-6.142 -1.01,0.059 -18.936,2.515 -39.836,5.457 M 918.436,1238.5 c -0.838,2.006 -1.262,4.471 -0.943,5.479 0.475,1.497 -0.111,1.945 -3.206,2.447 -7.738,1.255 -252.703,35.574 -253.924,35.574 -0.697,0 -13.982,15.638 -29.52,34.75 -15.539,19.112 -66.313,81.55 -112.831,138.75 -46.519,57.2 -93.268,114.704 -103.888,127.786 l -19.309,23.787 3.945,6.713 c 2.17,3.693 5.829,9.971 8.13,13.952 l 4.185,7.239 13.212,-6.616 c 7.267,-3.639 18.774,-9.726 25.571,-13.528 19.433,-10.869 53.601,-28.235 65.396,-33.237 24.882,-10.553 37.48,-13.482 61.407,-14.274 19.647,-0.65 34.113,0.249 67.339,4.186 21.111,2.501 36.81,3.995 52.5,4.998 4.95,0.316 11.08,0.816 13.623,1.111 l 4.623,0.536 117.115,-145.51 c 64.414,-80.031 117.543,-145.774 118.064,-146.097 1.055,-0.651 -1.659,-3.984 137.566,168.954 l 99.827,124 13.091,-0.196 c 22.077,-0.33 64.789,-5.674 102.091,-12.772 7.15,-1.36 16.654,-2.487 21.119,-2.503 26.894,-0.097 59.166,12.348 124.42,47.978 32.013,17.48 39.598,21.152 40.709,19.707 0.513,-0.668 4.197,-6.967 8.187,-13.998 4.917,-8.667 6.955,-13.175 6.326,-14 -0.51,-0.669 -14.64,-18.091 -31.401,-38.716 -16.76,-20.625 -72.707,-89.475 -124.327,-153 -119.072,-146.536 -106.441,-131.574 -111.71,-132.322 -2.378,-0.337 -60.348,-8.499 -128.823,-18.137 -129.399,-18.214 -127,-17.794 -127,-22.232 0,-1.617 -2.741,-1.646 -13.989,-0.149 -7.647,1.019 -10.788,0.888 -25.614,-1.065 -9.293,-1.224 -17.694,-2.454 -18.667,-2.734 -1.311,-0.377 -2.166,0.439 -3.294,3.139 m 473.611,82.358 c 0.799,1.156 36.778,47.528 79.953,103.048 46.148,59.344 78.776,100.462 79.17,99.77 0.369,-0.647 22.51,-38.976 49.202,-85.176 27.037,-46.797 47.999,-84.11 47.33,-84.249 -1.92,-0.397 -134.012,-18.603 -194.202,-26.765 -30.25,-4.102 -56.779,-7.745 -58.953,-8.095 -3.856,-0.62 -3.917,-0.584 -2.5,1.467 M 379.5,1338.557 c -68.75,9.518 -125.961,17.449 -127.135,17.624 -1.903,0.284 0.658,5.15 23.589,44.819 14.147,24.475 36.302,62.823 49.231,85.218 l 23.509,40.719 21.896,-28.219 c 12.043,-15.52 47.886,-61.657 79.653,-102.527 31.766,-40.871 57.757,-74.508 57.757,-74.75 0,-0.69 3.077,-1.1 -128.5,17.116" />
      </svg>
    </g>
  </svg>
  <g
     transform="translate(225,140)"
     id="container">
    <g
       id="text19"
       style="font-size:40px;font-family:'HelloFont WenYiHei';fill:#58b9a8;fill-opacity:1"
       aria-label="G">
      <path
         id="path50"
         style="font-size:40px;font-family:'HelloFont WenYiHei';fill:#58b9a8;fill-opacity:1"
         d="m -124.4025,-14.64 q 0,-1.88 1.28,-3.16 1.32,-1.32 3.12,-1.32 h 22.24 v 5.6 h -20.68 v 19.8 h 15.8 V -0.4 h -7.72 V -6 h 13.4 V 7.4 q 0,1.88 -1.28,3.16 -1.32,1.32 -3.12,1.32 h -18.64 q -1.8,0 -3.12,-1.32 -1.28,-1.28 -1.28,-3.16 v -22.04 z" />
    </g>
    <g
       id="text21"
       style="font-size:40px;font-family:'HelloFont WenYiHei';fill:#58b9a8;fill-opacity:1"
       aria-label="o">
      <path
         id="path53"
         style="font-size:40px;font-family:'HelloFont WenYiHei';fill:#58b9a8;fill-opacity:1"
         d="m -68.9675,6.32 q 0,2.36 -1.28,3.92 -1.32,1.64 -3.12,1.64 h -14.04 q -1.76,0 -3.16,-1.64 -1.36,-1.6 -1.36,-3.92 V -5.4 q 0,-2.24 1.36,-3.92 1.32,-1.64 3.16,-1.64 h 14.04 q 1.84,0 3.12,1.64 1.28,1.64 1.28,3.92 z M -85.7275,7 h 10.56 V -6.08 h -10.56 z" />
    </g>
    <g
       id="text23"
       style="font-size:40px;font-family:'HelloFont WenYiHei';fill:#58b9a8;fill-opacity:1"
       aria-label="l">
      <path
         id="path56"
         style="font-size:40px;font-family:'HelloFont WenYiHei';fill:#58b9a8;fill-opacity:1"
         d="m -63.9975,-19.12 h 6.2 v 31 h -6.2 z" />
    </g>
    <g
       id="text25"
       style="font-size:40px;font-family:'HelloFont WenYiHei';fill:#58b9a8;fill-opacity:1"
       aria-label="d">
      <path
         id="path59"
         style="font-size:40px;font-family:'HelloFont WenYiHei';fill:#58b9a8;fill-opacity:1"
         d="m -52.8125,-4.84 q 0,-2.04 1.28,-3.44 1.32,-1.44 3.12,-1.44 h 11.84 v -9.4 h 6.2 l -0.04,31 h -18 q -0.92,0 -1.72,-0.36 -0.76,-0.32 -1.4,-1.08 -1.28,-1.48 -1.28,-3.44 z m 16.2,11.92 v -12 h -10 v 12 z" />
    </g>
    <g
       id="text27"
       style="font-size:40px;font-family:'HelloFont WenYiHei';fill:#58b9a8;fill-opacity:1"
       aria-label="-">
      <path
         id="path62"
         style="font-size:40px;font-family:'HelloFont WenYiHei';fill:#58b9a8;fill-opacity:1"
         d="m -24.8175,-6.08 h 17.84 v 5.28 h -17.84 z" />
    </g>
    <g
       id="text29"
       style="font-size:40px;font-family:'HelloFont WenYiHei';fill:#58b9a8;fill-opacity:1"
       aria-label="O">
      <path
         id="path65"
         style="font-size:40px;font-family:'HelloFont WenYiHei';fill:#58b9a8;fill-opacity:1"
         d="m -1.5825,-14.64 q 0,-1.88 1.28,-3.16 1.32,-1.32 3.12,-1.32 h 18.24 q 1.84,0 3.12,1.32 1.28,1.36 1.28,3.16 V 7.4 q 0,1.88 -1.28,3.16 -1.32,1.32 -3.12,1.32 h -18.24 q -1.8,0 -3.12,-1.32 -1.28,-1.28 -1.28,-3.16 z m 20.64,21.12 v -20.2 h -14.24 v 20.2 z" />
    </g>
    <g
       id="text31"
       style="font-size:40px;font-family:'HelloFont WenYiHei';fill:#58b9a8;fill-opacity:1"
       aria-label="r">
      <path
         id="path68"
         style="font-size:40px;font-family:'HelloFont WenYiHei';fill:#58b9a8;fill-opacity:1"
         d="m 32.1725,11.88 v -22.84 h 14.12 v 4.8 h -8 v 18.04 z" />
    </g>
    <g
       id="text33"
       style="font-size:40px;font-family:'HelloFont WenYiHei';fill:#58b9a8;fill-opacity:1"
       aria-label="i">
      <path
         id="path71"
         style="font-size:40px;font-family:'HelloFont WenYiHei';fill:#58b9a8;fill-opacity:1"
         d="m 59.3175,-16.28 q 0,1.24 -0.92,2.28 -1.04,0.96 -2.32,0.96 -1.4,0 -2.28,-0.96 -0.96,-1.04 -0.96,-2.28 0,-1.28 0.96,-2.32 1.04,-0.92 2.28,-0.92 1.4,0 2.32,0.92 0.92,0.92 0.92,2.32 z m -6.36,5.32 h 6.2 v 22.84 h -6.2 z" />
    </g>
    <g
       id="text35"
       style="font-size:40px;font-family:'HelloFont WenYiHei';fill:#58b9a8;fill-opacity:1"
       aria-label="g">
      <path
         id="path74"
         style="font-size:40px;font-family:'HelloFont WenYiHei';fill:#58b9a8;fill-opacity:1"
         d="m 80.1675,15.16 v -7 h -11.52 q -0.92,0 -1.68,-0.32 -0.76,-0.32 -1.44,-1.04 -1.28,-1.4 -1.28,-3.32 v -9.76 q 0,-1.96 1.28,-3.32 1.32,-1.36 3.12,-1.36 h 13.32 q 1.8,0 3.12,1.36 1.28,1.36 1.28,3.32 v 21.6 q 0,2 -1.28,3.32 -1.32,1.36 -3.12,1.36 h -16.96 v -4.84 z m 0,-11.8 v -9.52 h -9.8 v 9.52 z" />
    </g>
    <g
       id="text37"
       style="font-size:40px;font-family:'HelloFont WenYiHei';fill:#58b9a8;fill-opacity:1"
       aria-label="i">
      <path
         id="path77"
         style="font-size:40px;font-family:'HelloFont WenYiHei';fill:#58b9a8;fill-opacity:1"
         d="m 97.5675,-16.28 q 0,1.24 -0.92,2.28 -1.04,0.96 -2.32,0.96 -1.4,0 -2.28,-0.96 -0.96,-1.04 -0.96,-2.28 0,-1.28 0.96,-2.32 1.04,-0.92 2.28,-0.92 1.4,0 2.32,0.92 0.92,0.92 0.92,2.32 z m -6.36,5.32 h 6.2 v 22.84 h -6.2 z" />
    </g>
    <g
       id="text39"
       style="font-size:40px;font-family:'HelloFont WenYiHei';fill:#58b9a8;fill-opacity:1"
       aria-label="n">
      <path
         id="path80"
         style="font-size:40px;font-family:'HelloFont WenYiHei';fill:#58b9a8;fill-opacity:1"
         d="m 118.3375,-6 h -8.8 v 17.88 h -6.2 v -22.84 h 16.76 q 1.84,0 3.12,1.64 1.28,1.64 1.28,3.92 v 17.28 h -6.16 z" />
    </g>
  </g>
</svg>
